<?xml version="1.0" encoding="UTF-8" standalone="no"?>
<!-- Created with Inkscape (http://www.inkscape.org/) -->

<svg
   width="807.9552mm"
   height="604.42847mm"
   viewBox="0 0 807.9552 604.42847"
   version="1.1"
   id="svg1"
   inkscape:version="1.4.4 (dcaf3e7d9e, 2026-05-05)"
   sodipodi:docname="TRigusmaeta.svg"
   xmlns:inkscape="http://www.inkscape.org/namespaces/inkscape"
   xmlns:sodipodi="http://sodipodi.sourceforge.net/DTD/sodipodi-0.dtd"
   xmlns="http://www.w3.org/2000/svg"
   xmlns:svg="http://www.w3.org/2000/svg">
  <sodipodi:namedview
     id="namedview1"
     pagecolor="#ffffff"
     bordercolor="#eeeeee"
     borderopacity="1"
     inkscape:showpageshadow="0"
     inkscape:pageopacity="0"
     inkscape:pagecheckerboard="0"
     inkscape:deskcolor="#505050"
     inkscape:document-units="px"
     inkscape:zoom="0.33464946"
     inkscape:cx="2178.3988"
     inkscape:cy="-449.72432"
     inkscape:window-width="1920"
     inkscape:window-height="1014"
     inkscape:window-x="0"
     inkscape:window-y="0"
     inkscape:window-maximized="1"
     inkscape:current-layer="g33">
    <inkscape:page
       x="0"
       y="0"
       width="807.9552"
       height="604.42847"
       id="page2"
       margin="0"
       bleed="0" />
  </sodipodi:namedview>
  <defs
     id="defs1">
    <inkscape:path-effect
       effect="fillet_chamfer"
       id="path-effect92"
       is_visible="true"
       lpeversion="1"
       nodesatellites_param="F,0,0,1,0,0,0,1 @ F,0,0,1,0,29.93856,0,1 @ F,0,0,1,0,0,0,1 @ F,0,0,1,0,0,0,1 @ F,0,0,1,0,9.1470949,0,1 @ F,0,0,1,0,0,0,1 @ F,0,0,1,0,0,0,1 @ F,0,0,1,0,0,0,1 @ F,0,0,1,0,0,0,1 @ F,0,0,1,0,0,0,1 @ F,0,0,1,0,0,0,1 @ F,0,0,1,0,0,0,1 @ F,0,0,1,0,0,0,1 @ F,0,0,1,0,0,0,1 @ F,0,0,1,0,0,0,1 @ F,0,0,1,0,0,0,1 @ F,0,0,1,0,0,0,1 @ F,0,0,1,0,9.1467149,0,1 @ F,0,0,1,0,0,0,1 @ F,0,0,1,0,0,0,1 @ F,0,0,1,0,0,0,1 @ F,0,0,1,0,0,0,1 @ F,0,0,1,0,0,0,1 @ F,0,0,1,0,0,0,1 @ F,0,0,1,0,0,0,1 @ F,0,0,1,0,0,0,1 @ F,0,0,1,0,0,0,1 @ F,0,0,1,0,0,0,1 @ F,0,0,1,0,0,0,1 @ F,0,0,1,0,0,0,1 @ F,0,0,1,0,0,0,1 @ F,0,0,1,0,0,0,1 @ F,0,0,1,0,0,0,1 @ F,0,0,1,0,0,0,1 @ F,0,0,1,0,0,0,1 @ F,0,0,1,0,0,0,1 @ F,0,0,1,0,0,0,1 @ F,0,0,1,0,12.15048,0,1 @ F,0,0,1,0,0,0,1 @ F,0,0,1,0,0,0,1 @ F,0,0,1,0,0,0,1 @ F,0,0,1,0,0,0,1 @ F,0,0,1,0,0,0,1 @ F,0,0,1,0,0,0,1 @ F,0,0,1,0,0,0,1 @ F,0,0,1,0,0,0,1 @ F,0,0,1,0,0,0,1 @ F,0,0,1,0,0,0,1 @ F,0,0,1,0,0,0,1 @ F,0,0,1,0,0,0,1 @ F,0,0,1,0,0,0,1 @ F,0,0,1,0,0,0,1 @ F,0,0,1,0,0,0,1 @ F,0,0,1,0,0,0,1 @ F,0,0,1,0,0,0,1 @ F,0,0,1,0,0,0,1 @ F,0,0,1,0,0,0,1 @ F,0,0,1,0,0,0,1 @ F,0,0,1,0,0,0,1 @ F,0,0,1,0,0,0,1 @ F,0,0,1,0,0,0,1 @ F,0,0,1,0,0,0,1 @ F,0,0,1,0,0,0,1 @ F,0,0,1,0,0,0,1"
       radius="0"
       unit="px"
       method="auto"
       mode="F"
       chamfer_steps="1"
       flexible="false"
       use_knot_distance="true"
       apply_no_radius="true"
       apply_with_radius="true"
       only_selected="false"
       hide_knots="false" />
    <inkscape:path-effect
       effect="fillet_chamfer"
       id="path-effect90"
       is_visible="true"
       lpeversion="1"
       nodesatellites_param="F,0,0,1,0,0,0,1 @ F,0,0,1,0,29.93856,0,1 @ F,0,0,1,0,0,0,1 @ F,0,0,1,0,0,0,1 @ F,0,0,1,0,9.1470949,0,1 @ F,0,0,1,0,0,0,1 @ F,0,0,1,0,0,0,1 @ F,0,0,1,0,0,0,1 @ F,0,0,1,0,0,0,1 @ F,0,0,1,0,0,0,1 @ F,0,0,1,0,0,0,1 @ F,0,0,1,0,0,0,1 @ F,0,0,1,0,0,0,1 @ F,0,0,1,0,0,0,1 @ F,0,0,1,0,0,0,1 @ F,0,0,1,0,0,0,1 @ F,0,0,1,0,0,0,1 @ F,0,0,1,0,9.1467149,0,1 @ F,0,0,1,0,0,0,1 @ F,0,0,1,0,0,0,1 @ F,0,0,1,0,0,0,1 @ F,0,0,1,0,0,0,1 @ F,0,0,1,0,0,0,1 @ F,0,0,1,0,0,0,1 @ F,0,0,1,0,0,0,1 @ F,0,0,1,0,0,0,1 @ F,0,0,1,0,0,0,1 @ F,0,0,1,0,0,0,1 @ F,0,0,1,0,0,0,1 @ F,0,0,1,0,0,0,1 @ F,0,0,1,0,0,0,1 @ F,0,0,1,0,0,0,1 @ F,0,0,1,0,0,0,1 @ F,0,0,1,0,0,0,1 @ F,0,0,1,0,0,0,1 @ F,0,0,1,0,0,0,1 @ F,0,0,1,0,0,0,1 @ F,0,0,1,0,12.15048,0,1 @ F,0,0,1,0,0,0,1 @ F,0,0,1,0,0,0,1 @ F,0,0,1,0,0,0,1 @ F,0,0,1,0,0,0,1 @ F,0,0,1,0,0,0,1 @ F,0,0,1,0,0,0,1 @ F,0,0,1,0,0,0,1 @ F,0,0,1,0,0,0,1 @ F,0,0,1,0,0,0,1 @ F,0,0,1,0,0,0,1 @ F,0,0,1,0,0,0,1 @ F,0,0,1,0,0,0,1 @ F,0,0,1,0,0,0,1 @ F,0,0,1,0,0,0,1 @ F,0,0,1,0,0,0,1 @ F,0,0,1,0,0,0,1 @ F,0,0,1,0,0,0,1 @ F,0,0,1,0,0,0,1 @ F,0,0,1,0,0,0,1 @ F,0,0,1,0,0,0,1 @ F,0,0,1,0,0,0,1 @ F,0,0,1,0,0,0,1 @ F,0,0,1,0,0,0,1 @ F,0,0,1,0,0,0,1 @ F,0,0,1,0,0,0,1 @ F,0,0,1,0,0,0,1"
       radius="0"
       unit="px"
       method="auto"
       mode="F"
       chamfer_steps="1"
       flexible="false"
       use_knot_distance="true"
       apply_no_radius="true"
       apply_with_radius="true"
       only_selected="false"
       hide_knots="false" />
    <inkscape:path-effect
       effect="fillet_chamfer"
       id="path-effect88"
       is_visible="true"
       lpeversion="1"
       nodesatellites_param="F,0,0,1,0,0,0,1 @ F,0,0,1,0,29.93856,0,1 @ F,0,0,1,0,0,0,1 @ F,0,0,1,0,0,0,1 @ F,0,0,1,0,9.1470949,0,1 @ F,0,0,1,0,0,0,1 @ F,0,0,1,0,0,0,1 @ F,0,0,1,0,0,0,1 @ F,0,0,1,0,0,0,1 @ F,0,0,1,0,0,0,1 @ F,0,0,1,0,0,0,1 @ F,0,0,1,0,0,0,1 @ F,0,0,1,0,0,0,1 @ F,0,0,1,0,0,0,1 @ F,0,0,1,0,0,0,1 @ F,0,0,1,0,0,0,1 @ F,0,0,1,0,0,0,1 @ F,0,0,1,0,9.1467149,0,1 @ F,0,0,1,0,0,0,1 @ F,0,0,1,0,0,0,1 @ F,0,0,1,0,0,0,1 @ F,0,0,1,0,0,0,1 @ F,0,0,1,0,0,0,1 @ F,0,0,1,0,0,0,1 @ F,0,0,1,0,0,0,1 @ F,0,0,1,0,0,0,1 @ F,0,0,1,0,0,0,1 @ F,0,0,1,0,0,0,1 @ F,0,0,1,0,0,0,1 @ F,0,0,1,0,0,0,1 @ F,0,0,1,0,0,0,1 @ F,0,0,1,0,0,0,1 @ F,0,0,1,0,0,0,1 @ F,0,0,1,0,0,0,1 @ F,0,0,1,0,0,0,1 @ F,0,0,1,0,0,0,1 @ F,0,0,1,0,0,0,1 @ F,0,0,1,0,12.15048,0,1 @ F,0,0,1,0,0,0,1 @ F,0,0,1,0,0,0,1 @ F,0,0,1,0,0,0,1 @ F,0,0,1,0,0,0,1 @ F,0,0,1,0,0,0,1 @ F,0,0,1,0,0,0,1 @ F,0,0,1,0,0,0,1 @ F,0,0,1,0,0,0,1 @ F,0,0,1,0,0,0,1 @ F,0,0,1,0,0,0,1 @ F,0,0,1,0,0,0,1 @ F,0,0,1,0,0,0,1 @ F,0,0,1,0,0,0,1 @ F,0,0,1,0,0,0,1 @ F,0,0,1,0,0,0,1 @ F,0,0,1,0,0,0,1 @ F,0,0,1,0,0,0,1 @ F,0,0,1,0,0,0,1 @ F,0,0,1,0,0,0,1 @ F,0,0,1,0,0,0,1 @ F,0,0,1,0,0,0,1 @ F,0,0,1,0,0,0,1 @ F,0,0,1,0,0,0,1 @ F,0,0,1,0,0,0,1 @ F,0,0,1,0,0,0,1 @ F,0,0,1,0,0,0,1"
       radius="0"
       unit="px"
       method="auto"
       mode="F"
       chamfer_steps="1"
       flexible="false"
       use_knot_distance="true"
       apply_no_radius="true"
       apply_with_radius="true"
       only_selected="false"
       hide_knots="false" />
  </defs>
  <g
     inkscape:label="Layer 1"
     inkscape:groupmode="layer"
     id="layer1"
     transform="translate(-111.4037,-162.47585)">
    <g
       id="g33">
      <g
         id="g48"
         transform="translate(-949.80821,97.643835)">
        <path
           d="m 607.6,260.384 v 483.78"
           style="fill:#000000;fill-opacity:1;stroke:#000000;stroke-width:0.79375;stroke-dasharray:none;stroke-opacity:1"
           id="path20" />
        <path
           d="m 566.459,260.384 v 483.78"
           style="fill:#000000;fill-opacity:1;stroke:#000000;stroke-width:0.79375;stroke-dasharray:none;stroke-opacity:1"
           id="path21" />
        <path
           d="m 525.319,260.384 v 483.78"
           style="fill:#000000;fill-opacity:1;stroke:#000000;stroke-width:0.79375;stroke-dasharray:none;stroke-opacity:1"
           id="path22" />
        <path
           d="m 484.179,260.384 v 483.78"
           style="fill:#000000;fill-opacity:1;stroke:#000000;stroke-width:0.79375;stroke-dasharray:none;stroke-opacity:1"
           id="path23" />
        <path
           d="m 443.039,260.384 v 483.78"
           style="fill:#000000;fill-opacity:1;stroke:#000000;stroke-width:0.79375;stroke-dasharray:none;stroke-opacity:1"
           id="path24" />
        <path
           d="m 401.899,260.384 v 483.78"
           style="fill:#000000;fill-opacity:1;stroke:#000000;stroke-width:0.79375;stroke-dasharray:none;stroke-opacity:1"
           id="path25" />
        <path
           d="m 360.759,260.384 v 483.78"
           style="fill:#000000;fill-opacity:1;stroke:#000000;stroke-width:0.79375;stroke-dasharray:none;stroke-opacity:1"
           id="path26" />
        <path
           d="m 319.619,260.384 v 483.78"
           style="fill:#000000;fill-opacity:1;stroke:#000000;stroke-width:0.79375;stroke-dasharray:none;stroke-opacity:1"
           id="path27" />
        <path
           d="m 278.478,260.384 v 483.78"
           style="fill:#000000;fill-opacity:1;stroke:#000000;stroke-width:0.79375;stroke-dasharray:none;stroke-opacity:1"
           id="path28" />
        <path
           d="m 237.338,260.384 v 483.78"
           style="fill:#000000;fill-opacity:1;stroke:#000000;stroke-width:0.79375;stroke-dasharray:none;stroke-opacity:1"
           id="path29" />
        <path
           d="m 196.198,260.384 v 483.78"
           style="fill:#000000;fill-opacity:1;stroke:#000000;stroke-width:0.79375;stroke-dasharray:none;stroke-opacity:1"
           id="path30" />
        <path
           d="m 155.058,260.384 v 483.78"
           style="fill:#000000;fill-opacity:1;stroke:#000000;stroke-width:0.79375;stroke-dasharray:none;stroke-opacity:1"
           id="path31" />
        <path
           d="m 623.21873,728.54521 h -483.78"
           style="fill:#000000;fill-opacity:1;stroke:#000000;stroke-width:0.79375;stroke-dasharray:none;stroke-opacity:1"
           id="path37" />
        <path
           d="m 623.21873,687.40421 h -483.78"
           style="fill:#000000;fill-opacity:1;stroke:#000000;stroke-width:0.79375;stroke-dasharray:none;stroke-opacity:1"
           id="path38" />
        <path
           d="m 623.21873,646.26421 h -483.78"
           style="fill:#000000;fill-opacity:1;stroke:#000000;stroke-width:0.79375;stroke-dasharray:none;stroke-opacity:1"
           id="path39" />
        <path
           d="m 623.21873,605.12421 h -483.78"
           style="fill:#000000;fill-opacity:1;stroke:#000000;stroke-width:0.79375;stroke-dasharray:none;stroke-opacity:1"
           id="path40" />
        <path
           d="m 623.21873,563.98421 h -483.78"
           style="fill:#000000;fill-opacity:1;stroke:#000000;stroke-width:0.79375;stroke-dasharray:none;stroke-opacity:1"
           id="path41" />
        <path
           d="m 623.21873,522.84421 h -483.78"
           style="fill:#000000;fill-opacity:1;stroke:#000000;stroke-width:0.79375;stroke-dasharray:none;stroke-opacity:1"
           id="path42" />
        <path
           d="m 623.21873,481.70421 h -483.78"
           style="fill:#000000;fill-opacity:1;stroke:#000000;stroke-width:0.79375;stroke-dasharray:none;stroke-opacity:1"
           id="path43" />
        <path
           d="m 623.21873,440.56421 h -483.78"
           style="fill:#000000;fill-opacity:1;stroke:#000000;stroke-width:0.79375;stroke-dasharray:none;stroke-opacity:1"
           id="path44" />
        <path
           d="m 623.21873,399.42321 h -483.78"
           style="fill:#000000;fill-opacity:1;stroke:#000000;stroke-width:0.79375;stroke-dasharray:none;stroke-opacity:1"
           id="path45" />
        <path
           d="m 623.21873,358.28321 h -483.78"
           style="fill:#000000;fill-opacity:1;stroke:#000000;stroke-width:0.79375;stroke-dasharray:none;stroke-opacity:1"
           id="path46" />
        <path
           d="m 623.21873,317.14321 h -483.78"
           style="fill:#000000;fill-opacity:1;stroke:#000000;stroke-width:0.79375;stroke-dasharray:none;stroke-opacity:1"
           id="path47" />
        <path
           d="m 623.21873,276.00321 h -483.78"
           style="fill:#000000;fill-opacity:1;stroke:#000000;stroke-width:0.79375;stroke-dasharray:none;stroke-opacity:1"
           id="path48" />
      </g>
      <text
         xml:space="preserve"
         style="font-size:231.366px;letter-spacing:192.805px;writing-mode:lr-tb;direction:ltr;fill:#000000;fill-opacity:1;stroke:none;stroke-width:38.5611;stroke-dasharray:none;stroke-opacity:1"
         x="1950.7048"
         y="77.754318"
         id="text72"
         transform="scale(0.98642969,1.013757)"><tspan
           sodipodi:role="line"
           id="tspan72"
           style="letter-spacing:192.805px;stroke:none;stroke-width:38.5611;stroke-dasharray:none"
           x="1950.7048"
           y="77.754318">T</tspan></text>
      <text
         xml:space="preserve"
         style="font-size:3.175px;letter-spacing:2.64583px;writing-mode:lr-tb;direction:ltr;fill:#000000;fill-opacity:1;stroke:none;stroke-width:0.529167;stroke-dasharray:none;stroke-opacity:1"
         x="883.71881"
         y="131.55092"
         id="text73"><tspan
           sodipodi:role="line"
           id="tspan73"
           style="stroke-width:0.529167"
           x="883.71881"
           y="131.55092" /></text>
      <text
         xml:space="preserve"
         style="font-size:231.366px;letter-spacing:192.805px;writing-mode:lr-tb;direction:ltr;fill:#000000;fill-opacity:1;stroke:none;stroke-width:38.5611;stroke-dasharray:none;stroke-opacity:1"
         x="1982.5757"
         y="77.024643"
         id="text75"
         transform="scale(0.98642969,1.013757)"><tspan
           sodipodi:role="line"
           id="tspan75"
           style="letter-spacing:192.805px;stroke:none;stroke-width:38.5611;stroke-dasharray:none"
           x="1982.5757"
           y="77.024643">R</tspan></text>
      <rect
         style="fill:none;fill-opacity:1;stroke:#000000;stroke-width:0.529167;stroke-dasharray:none;stroke-opacity:1"
         id="rect75"
         width="40.92659"
         height="40.92659"
         x="1178.2061"
         y="1497.6692"
         transform="rotate(-45)" />
      <path
         d="m -336.78412,56.497709 v 29.72721 h 29.72726 29.72719 v 29.727581 29.72722 29.72721 29.72722 29.72683 29.72722 h 29.72756 V 234.86098 205.13415 175.40693 145.67972 115.9525 86.224919 h 29.72727 29.72719 7.874 21.8532 29.72683 v 0.0956 a 29.54216,29.54216 0 0 1 29.493444,29.542001 29.54216,29.54216 0 0 1 -3.6e-4,0.09 29.54216,29.54216 0 0 1 -29.493084,29.45202 v 0.2752 h -29.72683 -21.74979 -7.97741 -29.72719 -12.06478 l 12.06478,12.06474 17.66242,17.66247 12.06477,12.06475 8.84631,8.84635 8.81618,8.81612 12.06471,12.06474 17.66213,17.66209 12.0647,12.06475 17.66249,17.66247 h 12.064714 29.72726 v -0.0303 l -29.69699,-29.69697 h -0.0303 v -0.0303 l -29.696644,-29.6966 h -0.0303 v -0.0306 l -29.69656,-29.6966 h 29.69656 v -0.0978 a 59.446406,59.446406 0 0 0 29.727264,-7.99499 59.446406,59.446406 0 0 0 21.65152,-21.63439 59.446406,59.446406 0 0 0 8.01888,-29.72721 59.446406,59.446406 0 0 0 0,-0.09 59.446406,59.446406 0 0 0 -7.91504,-29.637591 59.446406,59.446406 0 0 0 -21.75536,-21.81399 59.446406,59.446406 0 0 0 -26.663434,-7.91322 h -3.06383 -3.16124 -26.5656 -29.72719 -29.7272 -29.72719 -29.72763 -29.7272 z"
         id="path82"
         style="stroke-width:0.722584" />
      <path
         d="m -347.99364,-182.48164 v 26.7683 h 26.78944 26.78944 v 26.76865 26.7683 26.768309 26.76831 26.76798 26.7683104 h 26.78944 v -26.7683104 -26.76798 -26.76831 -26.768309 -26.7683 -26.76865 h 26.78976 26.78945 26.78943 7.09587 19.69358 26.7891 v 0.0861 a 26.622675,26.601676 0 0 1 26.57879,26.60153 26.622675,26.601676 0 0 1 -3.3e-4,0.081 26.622675,26.601676 0 0 1 -26.57846,26.5205 v 0.24781 h -26.7891 -19.60037 -7.18908 -26.78943 -10.87246 l 10.87246,10.863869 15.91699,15.90443 10.87244,10.86388 7.97212,7.96583 7.94487,7.9386 10.87246,10.86388 15.91665,15.9041 10.87245,10.86388 15.91699,15.9044304 h 10.87246 26.789434 v -0.0273 L -106.86143,-21.871901 h -0.0272 v -0.0273 l -26.76186,-26.74075 h -0.0276 v -0.0276 l -26.76185,-26.74074 h 26.76185 v -0.0881 a 53.571652,53.529398 0 0 0 26.78944,-7.1992 53.571652,53.529398 0 0 0 19.511874,-19.480999 53.571652,53.529398 0 0 0 7.22642,-26.76832 53.571652,53.529398 0 0 0 0,-0.081 53.571652,53.529398 0 0 0 -7.13288,-26.68761 53.571652,53.529398 0 0 0 -19.605414,-19.64273 53.571652,53.529398 0 0 0 -24.02843,-7.12557 h -2.76101 -2.84885 -23.94025 -26.78945 -26.78943 -26.78945 -26.78976 -26.78944 -26.78944 z"
         id="path83"
         style="stroke-width:0.650919" />
      <rect
         style="fill:none;fill-opacity:1;stroke:none;stroke-width:0.529167;stroke-dasharray:none;stroke-opacity:1"
         id="rect85"
         width="363.00729"
         height="264.67102"
         x="448.79001"
         y="-301.55017"
         inkscape:export-filename="rect85.svg"
         inkscape:export-xdpi="96"
         inkscape:export-ydpi="96" />
      <rect
         style="fill:#000000;fill-opacity:1;stroke:#000000;stroke-width:1.19096;stroke-dasharray:none;stroke-opacity:1"
         id="rect86"
         width="806.76428"
         height="603.23755"
         x="111.99918"
         y="163.07133"
         ry="22.894136"
         inkscape:export-filename="rect86.svg"
         inkscape:export-xdpi="96"
         inkscape:export-ydpi="96" />
      <path
         d="m 473.72575,46.76138 a 29.93856,29.93856 45 0 0 29.93856,29.93856 h 29.93857 20.79147 a 9.1470949,9.1470949 45 0 1 9.14709,9.147095 v 20.791845 29.93857 29.93856 29.93856 29.93818 29.93857 h 29.93894 V 226.39275 196.45457 166.51601 136.57745 106.63888 85.846655 a 9.1467149,9.1467149 135 0 1 9.14671,-9.146715 h 20.79185 29.93856 7.92999 22.00858 l 2.93817,0.0963 c 16.41245,0.02708 29.70304,13.339571 29.7031,29.75204 -7e-5,0.0302 -1.9e-4,0.0604 -3.6e-4,0.0906 -0.90588,30.76617 -31.75063,29.93857 -54.54532,29.93857 h -8.03416 -29.93856 -12.15052 l 12.15052,12.15051 17.78805,17.78805 12.15051,12.15052 8.90925,8.90925 8.8788,8.87879 12.15052,12.15052 17.78767,17.78766 12.1505,12.15053 9.19635,9.19635 a 29.333854,29.333854 22.5 0 0 20.74217,8.59169 h 29.93862 v -0.0305 l -29.90813,-29.9081 h -0.0306 v -0.0305 L 713.26491,196.4545 h -0.0306 v -0.0309 l -29.9077,-29.90772 2.9077,-0.0985 c 10.5134,-0.009 20.83914,-2.78573 29.93859,-8.05183 9.04566,-5.23496 16.56333,-12.74669 21.80545,-21.7882 5.27451,-9.09711 8.0759,-19.42298 8.0759,-29.93857 v -0.0906 c 0,-10.475478 -2.74865,-20.767599 -7.97132,-29.84831 -5.24589,-9.121157 -12.80303,-16.698658 -21.91003,-21.96908 -9.09467,-5.299915 -19.4483,-7.96948 -29.93859,-7.96948 h -3.18371 0.24556 -29.93857 -29.93856 -29.93857 -29.93894 -29.93856 -29.93856 z"
         id="path86"
         style="fill:#ffffff;fill-opacity:1;stroke:none;stroke-width:0.727722;stroke-opacity:1"
         inkscape:path-effect="#path-effect88"
         inkscape:original-d="m 473.72575,46.76138 v 29.93856 h 29.93856 29.93857 29.93856 v 29.93894 29.93857 29.93856 29.93856 29.93818 29.93857 h 29.93894 V 226.39275 196.45457 166.51601 136.57745 106.63888 76.69994 h 29.93856 29.93856 7.92999 22.00858 l 2.93817,0.0963 c 16.41245,0.02708 29.70304,13.339571 29.7031,29.75204 -7e-5,0.0302 -1.9e-4,0.0604 -3.6e-4,0.0906 -0.90588,30.76617 -31.75063,29.93857 -54.54532,29.93857 h -8.03416 -29.93856 -12.15052 l 12.15052,12.15051 17.78805,17.78805 12.15051,12.15052 8.90925,8.90925 8.8788,8.87879 12.15052,12.15052 17.78767,17.78766 12.1505,12.15053 17.78804,17.78804 h 12.15048 29.93862 v -0.0305 l -29.90813,-29.9081 h -0.0306 v -0.0305 L 713.26491,196.4545 h -0.0306 v -0.0309 l -29.9077,-29.90772 2.9077,-0.0985 c 10.5134,-0.009 20.83914,-2.78573 29.93859,-8.05183 9.04566,-5.23496 16.56333,-12.74669 21.80545,-21.7882 5.27451,-9.09711 8.0759,-19.42298 8.0759,-29.93857 v -0.0906 c 0,-10.475478 -2.74865,-20.767599 -7.97132,-29.84831 -5.24589,-9.121157 -12.80303,-16.698658 -21.91003,-21.96908 -9.09467,-5.299915 -19.4483,-7.96948 -29.93859,-7.96948 h -3.18371 0.24556 -29.93857 -29.93856 -29.93857 -29.93894 -29.93856 -29.93856 z"
         transform="matrix(2.1645307,0,0,2.1645307,-833.14275,138.20423)"
         sodipodi:nodetypes="cccccccccccccccccccccccscccccccccccccccccccccccccsssssscccccccccc" />
      <rect
         style="fill:#000000;fill-opacity:1;stroke:#000000;stroke-width:0.529167;stroke-dasharray:none;stroke-opacity:1"
         id="rect88"
         width="363.00729"
         height="264.67102"
         x="-387.59534"
         y="-500.68518" />
      <path
         d="m 473.72575,46.76138 a 29.93856,29.93856 45 0 0 29.93856,29.93856 h 29.93857 20.79147 a 9.1470949,9.1470949 45 0 1 9.14709,9.147095 v 20.791845 29.93857 29.93856 29.93856 29.93818 29.93857 h 29.93894 V 226.39275 196.45457 166.51601 136.57745 106.63888 85.846655 a 9.1467149,9.1467149 135 0 1 9.14671,-9.146715 h 20.79185 29.93856 7.92999 22.00858 l 2.93817,0.0963 c 16.41245,0.02708 29.70304,13.339571 29.7031,29.75204 -7e-5,0.0302 -1.9e-4,0.0604 -3.6e-4,0.0906 -0.90588,30.76617 -31.75063,29.93857 -54.54532,29.93857 h -8.03416 -29.93856 -12.15052 l 12.15052,12.15051 17.78805,17.78805 12.15051,12.15052 8.90925,8.90925 8.8788,8.87879 12.15052,12.15052 17.78767,17.78766 12.1505,12.15053 9.19635,9.19635 a 29.333854,29.333854 22.5 0 0 20.74217,8.59169 h 29.93862 v -0.0305 l -29.90813,-29.9081 h -0.0306 v -0.0305 L 713.26491,196.4545 h -0.0306 v -0.0309 l -29.9077,-29.90772 2.9077,-0.0985 c 10.5134,-0.009 20.83914,-2.78573 29.93859,-8.05183 9.04566,-5.23496 16.56333,-12.74669 21.80545,-21.7882 5.27451,-9.09711 8.0759,-19.42298 8.0759,-29.93857 v -0.0906 c 0,-10.475478 -2.74865,-20.767599 -7.97132,-29.84831 -5.24589,-9.121157 -12.80303,-16.698658 -21.91003,-21.96908 -9.09467,-5.299915 -19.4483,-7.96948 -29.93859,-7.96948 h -3.18371 0.24556 -29.93857 -29.93856 -29.93857 -29.93894 -29.93856 -29.93856 z"
         id="path88"
         style="fill:#ffffff;fill-opacity:1;stroke:none;stroke-width:0.727722;stroke-opacity:1"
         inkscape:path-effect="#path-effect90"
         inkscape:original-d="m 473.72575,46.76138 v 29.93856 h 29.93856 29.93857 29.93856 v 29.93894 29.93857 29.93856 29.93856 29.93818 29.93857 h 29.93894 V 226.39275 196.45457 166.51601 136.57745 106.63888 76.69994 h 29.93856 29.93856 7.92999 22.00858 l 2.93817,0.0963 c 16.41245,0.02708 29.70304,13.339571 29.7031,29.75204 -7e-5,0.0302 -1.9e-4,0.0604 -3.6e-4,0.0906 -0.90588,30.76617 -31.75063,29.93857 -54.54532,29.93857 h -8.03416 -29.93856 -12.15052 l 12.15052,12.15051 17.78805,17.78805 12.15051,12.15052 8.90925,8.90925 8.8788,8.87879 12.15052,12.15052 17.78767,17.78766 12.1505,12.15053 17.78804,17.78804 h 12.15048 29.93862 v -0.0305 l -29.90813,-29.9081 h -0.0306 v -0.0305 L 713.26491,196.4545 h -0.0306 v -0.0309 l -29.9077,-29.90772 2.9077,-0.0985 c 10.5134,-0.009 20.83914,-2.78573 29.93859,-8.05183 9.04566,-5.23496 16.56333,-12.74669 21.80545,-21.7882 5.27451,-9.09711 8.0759,-19.42298 8.0759,-29.93857 v -0.0906 c 0,-10.475478 -2.74865,-20.767599 -7.97132,-29.84831 -5.24589,-9.121157 -12.80303,-16.698658 -21.91003,-21.96908 -9.09467,-5.299915 -19.4483,-7.96948 -29.93859,-7.96948 h -3.18371 0.24556 -29.93857 -29.93856 -29.93857 -29.93894 -29.93856 -29.93856 z"
         transform="translate(-830.27141,-519.76797)"
         sodipodi:nodetypes="cccccccccccccccccccccccscccccccccccccccccccccccccsssssscccccccccc" />
      <rect
         style="fill:#ffffff;fill-opacity:1;stroke:#000000;stroke-width:0.529167;stroke-dasharray:none;stroke-opacity:1"
         id="rect89"
         width="363.00729"
         height="264.67102"
         x="-387.59534"
         y="-500.68518" />
      <path
         d="m 473.72575,46.76138 a 29.93856,29.93856 45 0 0 29.93856,29.93856 h 29.93857 20.79147 a 9.1470949,9.1470949 45 0 1 9.14709,9.147095 v 20.791845 29.93857 29.93856 29.93856 29.93818 29.93857 h 29.93894 V 226.39275 196.45457 166.51601 136.57745 106.63888 85.846655 a 9.1467149,9.1467149 135 0 1 9.14671,-9.146715 h 20.79185 29.93856 7.92999 22.00858 l 2.93817,0.0963 c 16.41245,0.02708 29.70304,13.339571 29.7031,29.75204 -7e-5,0.0302 -1.9e-4,0.0604 -3.6e-4,0.0906 -0.90588,30.76617 -31.75063,29.93857 -54.54532,29.93857 h -8.03416 -29.93856 -12.15052 l 12.15052,12.15051 17.78805,17.78805 12.15051,12.15052 8.90925,8.90925 8.8788,8.87879 12.15052,12.15052 17.78767,17.78766 12.1505,12.15053 9.19635,9.19635 a 29.333854,29.333854 22.5 0 0 20.74217,8.59169 h 29.93862 v -0.0305 l -29.90813,-29.9081 h -0.0306 v -0.0305 L 713.26491,196.4545 h -0.0306 v -0.0309 l -29.9077,-29.90772 2.9077,-0.0985 c 10.5134,-0.009 20.83914,-2.78573 29.93859,-8.05183 9.04566,-5.23496 16.56333,-12.74669 21.80545,-21.7882 5.27451,-9.09711 8.0759,-19.42298 8.0759,-29.93857 v -0.0906 c 0,-10.475478 -2.74865,-20.767599 -7.97132,-29.84831 -5.24589,-9.121157 -12.80303,-16.698658 -21.91003,-21.96908 -9.09467,-5.299915 -19.4483,-7.96948 -29.93859,-7.96948 h -3.18371 0.24556 -29.93857 -29.93856 -29.93857 -29.93894 -29.93856 -29.93856 z"
         id="path89"
         style="fill:#000000;fill-opacity:1;stroke:none;stroke-width:0.727722;stroke-opacity:1"
         inkscape:path-effect="#path-effect92"
         inkscape:original-d="m 473.72575,46.76138 v 29.93856 h 29.93856 29.93857 29.93856 v 29.93894 29.93857 29.93856 29.93856 29.93818 29.93857 h 29.93894 V 226.39275 196.45457 166.51601 136.57745 106.63888 76.69994 h 29.93856 29.93856 7.92999 22.00858 l 2.93817,0.0963 c 16.41245,0.02708 29.70304,13.339571 29.7031,29.75204 -7e-5,0.0302 -1.9e-4,0.0604 -3.6e-4,0.0906 -0.90588,30.76617 -31.75063,29.93857 -54.54532,29.93857 h -8.03416 -29.93856 -12.15052 l 12.15052,12.15051 17.78805,17.78805 12.15051,12.15052 8.90925,8.90925 8.8788,8.87879 12.15052,12.15052 17.78767,17.78766 12.1505,12.15053 17.78804,17.78804 h 12.15048 29.93862 v -0.0305 l -29.90813,-29.9081 h -0.0306 v -0.0305 L 713.26491,196.4545 h -0.0306 v -0.0309 l -29.9077,-29.90772 2.9077,-0.0985 c 10.5134,-0.009 20.83914,-2.78573 29.93859,-8.05183 9.04566,-5.23496 16.56333,-12.74669 21.80545,-21.7882 5.27451,-9.09711 8.0759,-19.42298 8.0759,-29.93857 v -0.0906 c 0,-10.475478 -2.74865,-20.767599 -7.97132,-29.84831 -5.24589,-9.121157 -12.80303,-16.698658 -21.91003,-21.96908 -9.09467,-5.299915 -19.4483,-7.96948 -29.93859,-7.96948 h -3.18371 0.24556 -29.93857 -29.93856 -29.93857 -29.93894 -29.93856 -29.93856 z"
         transform="translate(-830.27141,-519.76797)"
         sodipodi:nodetypes="cccccccccccccccccccccccscccccccccccccccccccccccccsssssscccccccccc" />
    </g>
  </g>
</svg>
